name sv09_filtered_grf.mot
datacolumns 37
datarows 6
range 0.002500 0.005000
endheader
time	1_ground_force_vx	1_ground_force_vy	1_ground_force_vz	1_ground_force_px	1_ground_force_py	1_ground_force_pz	1_ground_torque_x	1_ground_torque_y	1_ground_torque_z	2_ground_force_vx	2_ground_force_vy	2_ground_force_vz	2_ground_force_px	2_ground_force_py	2_ground_force_pz	2_ground_torque_x	2_ground_torque_y	2_ground_torque_z	3_ground_force_vx	3_ground_force_vy	3_ground_force_vz	3_ground_force_px	3_ground_force_py	3_ground_force_pz	3_ground_torque_x	3_ground_torque_y	3_ground_torque_z	4_ground_force_vx	4_ground_force_vy	4_ground_force_vz	4_ground_force_px	4_ground_force_py	4_ground_force_pz	4_ground_torque_x	4_ground_torque_y	4_ground_torque_z
            0.002500	          -18.801136	          271.715669	          437.131803	            0.088168	            0.000000	            1.818680	            0.027845	           -0.402421	           -0.647409	           -0.000000	            0.000000	            0.000000	           -0.215348	            0.000000	            0.245744	            0.000000	           -0.000000	            0.000000	           18.150473	            0.423689	           -1.254897	            0.381057	            1.022450	            1.096216	           -0.117533	           -0.002744	            0.008126	          -15.796154	            2.522262	            1.774001	           -0.492068	            1.020645	            1.098988	            0.029279	           -0.004675	           -0.003288
            0.003000	          -18.699544	          272.524618	          438.277226	            0.088317	            0.000000	            1.818338	            0.028688	           -0.418095	           -0.672385	           -0.000000	            0.000000	            0.000000	           -0.215348	            0.000000	            0.245744	            0.000000	           -0.000000	            0.000000	           18.111723	            0.422329	           -1.286218	            0.381057	            1.022450	            1.096216	           -0.115675	           -0.002697	            0.008215	          -15.521848	            2.420799	            1.547266	           -0.492068	            1.020645	            1.098988	            0.027843	           -0.004342	           -0.002775
            0.003500	          -18.593529	          273.333339	          439.444857	            0.088474	            0.000000	            1.817995	            0.029482	           -0.433401	           -0.696789	           -0.000000	            0.000000	            0.000000	           -0.215348	            0.000000	            0.245744	           -0.000000	           -0.000000	            0.000000	           18.072605	            0.421859	           -1.316184	            0.381062	            1.022457	            1.096214	           -0.113816	           -0.002657	            0.008289	          -15.252322	            2.320302	            1.328714	           -0.492068	            1.020647	            1.098987	            0.026415	           -0.004019	           -0.002301
            0.004000	          -18.483257	          274.139317	          440.632554	            0.088636	            0.000000	            1.817654	            0.030229	           -0.448355	           -0.720654	           -0.000000	            0.000000	            0.000000	           -0.215348	            0.000000	            0.245744	           -0.000000	           -0.000000	            0.000000	           18.033362	            0.422316	           -1.344743	            0.381067	            1.022463	            1.096212	           -0.111966	           -0.002622	            0.008349	          -14.988629	            2.221007	            1.119183	           -0.492068	            1.020649	            1.098987	            0.025003	           -0.003705	           -0.001867
            0.004500	          -18.368931	          274.940131	          441.838146	            0.088804	            0.000000	            1.817316	            0.030932	           -0.462977	           -0.744019	           -0.000000	            0.000000	            0.000000	           -0.215348	            0.000000	            0.245744	           -0.000000	           -0.000000	            0.000000	           17.994221	            0.423727	           -1.371850	            0.381071	            1.022469	            1.096210	           -0.110135	           -0.002593	            0.008397	          -14.731756	            2.123125	            0.919435	           -0.492068	            1.020650	            1.098986	            0.023610	           -0.003403	           -0.001474
            0.005000	          -18.250785	          275.733472	          443.059449	            0.088978	            0.000000	            1.816983	            0.031592	           -0.477290	           -0.766928	           -0.000000	            0.000000	            0.000000	           -0.215348	            0.000000	            0.245744	           -0.000000	           -0.000000	            0.000000	           17.955388	            0.426099	           -1.397467	            0.381076	            1.022475	            1.096207	           -0.108331	           -0.002571	            0.008431	          -14.482620	            2.026836	            0.730149	           -0.492067	            1.020652	            1.098986	            0.022241	           -0.003113	           -0.001121
